<svg width="310" height="13" viewBox="0 0 310 13" fill="none" xmlns="http://www.w3.org/2000/svg">
<path fill-rule="evenodd" clip-rule="evenodd" d="M208.653 0L190.169 13L215.783 13L234.266 0L208.653 0Z" fill="#284492"/>
<path fill-rule="evenodd" clip-rule="evenodd" d="M283.483 0L265 13L290.613 13L309.097 0L283.483 0Z" fill="#284492"/>
<path fill-rule="evenodd" clip-rule="evenodd" d="M132.358 0L113.875 13L139.488 13L157.973 0L132.358 0Z" fill="#284492"/>
<path fill-rule="evenodd" clip-rule="evenodd" d="M56.0656 0L37.5822 13L63.1955 13L81.679 0L56.0656 0Z" fill="#284492"/>
<path fill-rule="evenodd" clip-rule="evenodd" d="M246.798 -0.000671387L228.313 12.9993L253.927 12.9993L272.411 -0.000671387L246.798 -0.000671387Z" fill="#FF5C5C"/>
<path fill-rule="evenodd" clip-rule="evenodd" d="M170.503 -0.000671387L152.019 12.9993L177.634 12.9993L196.118 -0.000671387L170.503 -0.000671387Z" fill="#FF5C5C"/>
<path fill-rule="evenodd" clip-rule="evenodd" d="M94.2111 -0.000671387L75.7264 12.9993L101.34 12.9993L119.824 -0.000671387L94.2111 -0.000671387Z" fill="#FF5C5C"/>
<path fill-rule="evenodd" clip-rule="evenodd" d="M18.4848 0L6.48812e-05 13L25.6134 13L44.0981 0L18.4848 0Z" fill="#FF5C5C"/>
</svg>
